<svg xmlns="http://www.w3.org/2000/svg" viewBox="0 0 400 240" width="100%" height="100%">
    <defs>
      <linearGradient id="p_bg3" x1="0%" y1="0%" x2="100%" y2="100%">
        <stop offset="0%" stop-color="#1a0d24"/>
        <stop offset="100%" stop-color="#3d144e"/>
      </linearGradient>
    </defs>
    <rect width="400" height="240" rx="12" fill="url(#p_bg3)" stroke="rgba(236,72,153,0.4)" stroke-width="2"/>
    <!-- Palm Vision & Moisture scanning grid -->
    <path d="M175 125 L175 95 C175 88 182 88 182 95 L182 75 C182 68 190 68 190 75 L190 70 C190 63 198 63 198 70 L198 80 C198 73 206 73 206 80 L206 110 C216 110 225 118 225 128 C225 145 200 150 185 150 C175 150 175 140 175 125 Z" 
          fill="none" stroke="#ec4899" stroke-width="2"/>
    <circle cx="190" cy="115" r="16" fill="none" stroke="#38bdf8" stroke-width="1.5" stroke-dasharray="3 2"/>
    <text x="200" y="180" text-anchor="middle" fill="#ffffff" font-family="system-ui, sans-serif" font-size="14" font-weight="bold">PATENT PUBLISHED #202641009563</text>
    <text x="200" y="200" text-anchor="middle" fill="#ec4899" font-family="system-ui, sans-serif" font-size="12">Non-Invasive Palmar Hyperhidrosis CV Assessment</text>
    <text x="200" y="218" text-anchor="middle" fill="#a7f3d0" font-family="system-ui, sans-serif" font-size="11">Field: Bio-Medical Engineering • Publ: 13/02/2026</text>
  </svg>